<svg width="30" height="30" viewBox="0 0 30 30" fill="none" xmlns="http://www.w3.org/2000/svg">
<rect width="30" height="30" fill="#030430"/>
<g clip-path="url(#clip0_971_17)">
<path d="M15.7499 5.75V7.5H17.7249C18.0759 7.5 18.4189 7.606 18.7089 7.803L20.4059 8.957C20.4479 8.985 20.4946 8.99933 20.5459 9H24.6479C24.8468 9 25.0376 9.07902 25.1782 9.21967C25.3189 9.36032 25.3979 9.55109 25.3979 9.75C25.3979 9.94891 25.3189 10.1397 25.1782 10.2803C25.0376 10.421 24.8468 10.5 24.6479 10.5H23.0699L26.4359 18.18C26.5033 18.3336 26.5172 18.5053 26.4755 18.6677C26.4338 18.8301 26.3389 18.9739 26.2059 19.076C26.1059 19.15 26.0026 19.2187 25.8959 19.282C25.6428 19.4343 25.3787 19.5676 25.1059 19.681C24.2014 20.0593 23.2303 20.2527 22.2499 20.25C21.2698 20.2543 20.2988 20.0611 19.3949 19.682C19.1221 19.5683 18.858 19.4346 18.6049 19.282C18.4986 19.221 18.396 19.1535 18.2979 19.08L18.2929 19.076C18.1599 18.9739 18.065 18.8301 18.0233 18.6677C17.9816 18.5053 17.9956 18.3336 18.0629 18.18L21.4309 10.5H20.5449C20.1939 10.5 19.8509 10.394 19.5609 10.197L17.8639 9.043C17.8226 9.01501 17.7738 9.00004 17.7239 9H15.7499V23.5H20.2369C20.4358 23.5 20.6266 23.579 20.7672 23.7197C20.9079 23.8603 20.9869 24.0511 20.9869 24.25C20.9869 24.4489 20.9079 24.6397 20.7672 24.7803C20.6266 24.921 20.4358 25 20.2369 25H9.76292C9.564 25 9.37324 24.921 9.23259 24.7803C9.09193 24.6397 9.01292 24.4489 9.01292 24.25C9.01292 24.0511 9.09193 23.8603 9.23259 23.7197C9.37324 23.579 9.564 23.5 9.76292 23.5H14.2499V9H12.2749C12.225 9.00004 12.1762 9.01501 12.1349 9.043L10.4389 10.197C10.1489 10.394 9.80592 10.5 9.45492 10.5H8.56892L11.9369 18.18C12.0021 18.3292 12.017 18.4956 11.9793 18.654C11.9416 18.8124 11.8533 18.9542 11.7279 19.058C11.6479 19.123 11.5679 19.184 11.4179 19.281C11.1652 19.445 10.9004 19.5898 10.6259 19.714C9.72297 20.125 8.74201 20.3365 7.74992 20.334C6.75783 20.3365 5.77686 20.125 4.87392 19.714C4.59942 19.5898 4.33467 19.445 4.08192 19.281C3.97547 19.2123 3.87236 19.1385 3.77292 19.06C3.64823 18.9552 3.56052 18.8131 3.52271 18.6547C3.4849 18.4962 3.499 18.3298 3.56292 18.18L6.92992 10.5H5.35292C5.154 10.5 4.96324 10.421 4.82259 10.2803C4.68193 10.1397 4.60292 9.94891 4.60292 9.75C4.60292 9.55109 4.68193 9.36032 4.82259 9.21967C4.96324 9.07902 5.154 9 5.35292 9H9.45492C9.50558 9 9.55258 8.98567 9.59592 8.957L11.2909 7.803C11.5809 7.605 11.9249 7.5 12.2759 7.5H14.2499V5.75C14.2499 5.55109 14.3289 5.36032 14.4696 5.21967C14.6102 5.07902 14.801 5 14.9999 5C15.1988 5 15.3896 5.07902 15.5302 5.21967C15.6709 5.36032 15.7499 5.55109 15.7499 5.75ZM5.19292 18.198C5.97975 18.6175 6.85823 18.8357 7.74992 18.833C8.64161 18.8357 9.52009 18.6175 10.3069 18.198L7.74992 12.368L5.19292 18.198ZM19.7029 18.174C19.7849 18.214 19.8766 18.256 19.9779 18.3C20.5079 18.523 21.2829 18.75 22.2499 18.75C23.1315 18.7524 24.0022 18.5555 24.7969 18.174L22.2499 12.367L19.7029 18.174Z" fill="white"/>
</g>
<defs>
<clipPath id="clip0_971_17">
<rect width="24" height="24" fill="white" transform="translate(3 3)"/>
</clipPath>
</defs>
</svg>
